<?xml version="1.0" standalone="no"?>
<!DOCTYPE svg PUBLIC "-//W3C//DTD SVG 20010904//EN"
 "http://www.w3.org/TR/2001/REC-SVG-20010904/DTD/svg10.dtd">
<svg version="1.0" xmlns="http://www.w3.org/2000/svg"
 width="219.000000pt" height="230.000000pt" viewBox="0 0 219.000000 230.000000"
 preserveAspectRatio="xMidYMid meet">

<g transform="translate(0.000000,230.000000) scale(0.100000,-0.100000)"
fill="#000000" stroke="none">
<path d="M965 2080 c-373 -58 -665 -339 -741 -711 -22 -110 -15 -302 16 -409
72 -251 248 -456 486 -566 270 -125 619 -98 861 67 69 47 189 165 233 229 78
114 131 246 151 372 14 89 6 281 -15 358 -87 316 -334 561 -644 641 -89 23
-261 32 -347 19z m46 -520 c68 -93 126 -166 130 -162 3 4 63 75 132 158 70 83
133 157 141 163 9 8 44 11 95 9 l82 -3 -85 -100 c-242 -286 -286 -339 -286
-345 0 -4 99 -141 219 -306 l220 -299 -167 -3 c-91 -1 -171 -1 -177 2 -6 2
-70 85 -143 185 l-133 181 -66 -77 c-36 -43 -107 -126 -157 -185 l-91 -108
-82 0 c-46 0 -83 3 -83 8 0 4 19 30 43 57 130 149 347 410 347 416 0 4 -81
117 -180 251 -100 133 -194 262 -211 286 l-30 42 179 0 180 0 123 -170z"/>
<path d="M740 1620 c0 -3 64 -91 143 -197 78 -105 217 -293 309 -417 l168
-226 46 0 46 0 -35 48 c-165 228 -536 735 -559 764 -27 34 -33 37 -74 35 -24
-1 -44 -4 -44 -7z"/>
</g>
</svg>
